<?xml version="1.0" encoding="UTF-8" standalone="no"?>
<!-- Created with Inkscape (http://www.inkscape.org/) -->

<svg
   xmlns:dc="http://purl.org/dc/elements/1.1/"
   xmlns:cc="http://creativecommons.org/ns#"
   xmlns:rdf="http://www.w3.org/1999/02/22-rdf-syntax-ns#"
   xmlns:svg="http://www.w3.org/2000/svg"
   xmlns="http://www.w3.org/2000/svg"
   xmlns:sodipodi="http://sodipodi.sourceforge.net/DTD/sodipodi-0.dtd"
   xmlns:inkscape="http://www.inkscape.org/namespaces/inkscape"
   width="307.31012"
   height="47.36187"
   id="svg3619"
   version="1.1"
   inkscape:version="0.48.5 r10040"
   sodipodi:docname="logo-text.svg">
  <defs
     id="defs3621">
    <radialGradient
       fx="-0.30403399"
       fy="-0.34323701"
       cx="0"
       cy="0"
       r="1"
       gradientUnits="userSpaceOnUse"
       gradientTransform="matrix(2.3562787,0.7074918,-0.6125514,2.7215121,66.603027,98.626953)"
       spreadMethod="pad"
       id="radialGradient420">
      <stop
         style="stop-opacity:1;stop-color:#f9a72c"
         offset="0"
         id="stop422" />
      <stop
         style="stop-opacity:1;stop-color:#ec1e27"
         offset="1"
         id="stop424" />
    </radialGradient>
    <radialGradient
       fx="-0.281441"
       fy="-0.41507"
       cx="0"
       cy="0"
       r="1"
       gradientUnits="userSpaceOnUse"
       gradientTransform="matrix(2.3561084,0.7074407,-0.6125071,2.7213154,60.878418,96.908203)"
       spreadMethod="pad"
       id="radialGradient400">
      <stop
         style="stop-opacity:1;stop-color:#f9a72c"
         offset="0"
         id="stop402" />
      <stop
         style="stop-opacity:1;stop-color:#ec1e27"
         offset="1"
         id="stop404" />
    </radialGradient>
    <radialGradient
       fx="-0.26255101"
       fy="-0.41235501"
       cx="0"
       cy="0"
       r="1"
       gradientUnits="userSpaceOnUse"
       gradientTransform="matrix(2.3562787,0.7074918,-0.6125514,2.7215121,55.154785,95.19043)"
       spreadMethod="pad"
       id="radialGradient380">
      <stop
         style="stop-opacity:1;stop-color:#f9a72c"
         offset="0"
         id="stop382" />
      <stop
         style="stop-opacity:1;stop-color:#ec1e27"
         offset="1"
         id="stop384" />
    </radialGradient>
    <radialGradient
       fx="-0.26755801"
       fy="-0.382357"
       cx="0"
       cy="0"
       r="1"
       gradientUnits="userSpaceOnUse"
       gradientTransform="matrix(2.3564489,0.7075429,-0.6125957,2.7217088,49.431152,93.472656)"
       spreadMethod="pad"
       id="radialGradient360">
      <stop
         style="stop-opacity:1;stop-color:#f9a72c"
         offset="0"
         id="stop362" />
      <stop
         style="stop-opacity:1;stop-color:#ec1e27"
         offset="1"
         id="stop364" />
    </radialGradient>
    <radialGradient
       fx="-0.27775699"
       fy="-0.35432401"
       cx="0"
       cy="0"
       r="1"
       gradientUnits="userSpaceOnUse"
       gradientTransform="matrix(2.3564489,0.7075429,-0.6125957,2.7217088,68.348633,90.870117)"
       spreadMethod="pad"
       id="radialGradient340">
      <stop
         style="stop-opacity:1;stop-color:#81cc2b"
         offset="0"
         id="stop342" />
      <stop
         style="stop-opacity:1;stop-color:#2a9840"
         offset="1"
         id="stop344" />
    </radialGradient>
    <radialGradient
       fx="-0.32232001"
       fy="-0.40616399"
       cx="0"
       cy="0"
       r="1"
       gradientUnits="userSpaceOnUse"
       gradientTransform="matrix(2.3562787,0.7074918,-0.6125514,2.7215121,62.625,89.151367)"
       spreadMethod="pad"
       id="radialGradient320">
      <stop
         style="stop-opacity:1;stop-color:#81cc2b"
         offset="0"
         id="stop322" />
      <stop
         style="stop-opacity:1;stop-color:#2a9840"
         offset="1"
         id="stop324" />
    </radialGradient>
    <radialGradient
       fx="-0.28868899"
       fy="-0.40130201"
       cx="0"
       cy="0"
       r="1"
       gradientUnits="userSpaceOnUse"
       gradientTransform="matrix(2.3562787,0.7074918,-0.6125514,2.7215121,56.900391,87.432617)"
       spreadMethod="pad"
       id="radialGradient300">
      <stop
         style="stop-opacity:1;stop-color:#81cc2b"
         offset="0"
         id="stop302" />
      <stop
         style="stop-opacity:1;stop-color:#2a9840"
         offset="1"
         id="stop304" />
    </radialGradient>
    <radialGradient
       fx="-0.26545101"
       fy="-0.36737701"
       cx="0"
       cy="0"
       r="1"
       gradientUnits="userSpaceOnUse"
       gradientTransform="matrix(2.3566191,0.707594,-0.6126399,2.7219052,51.177246,85.713867)"
       spreadMethod="pad"
       id="radialGradient280">
      <stop
         style="stop-opacity:1;stop-color:#81cc2b"
         offset="0"
         id="stop282" />
      <stop
         style="stop-opacity:1;stop-color:#2a9840"
         offset="1"
         id="stop284" />
    </radialGradient>
    <radialGradient
       fx="-0.313977"
       fy="-0.413515"
       cx="0"
       cy="0"
       r="1"
       gradientUnits="userSpaceOnUse"
       gradientTransform="matrix(2.3566191,0.707594,-0.6126399,2.7219052,70.069824,83.224609)"
       spreadMethod="pad"
       id="radialGradient260">
      <stop
         style="stop-opacity:1;stop-color:#f5f015"
         offset="0"
         id="stop262" />
      <stop
         style="stop-opacity:1;stop-color:#f9a72c"
         offset="1"
         id="stop264" />
    </radialGradient>
    <radialGradient
       fx="-0.234772"
       fy="-0.37111399"
       cx="0"
       cy="0"
       r="1"
       gradientUnits="userSpaceOnUse"
       gradientTransform="matrix(2.3564489,0.7075429,-0.6125957,2.7217088,64.345215,81.506836)"
       spreadMethod="pad"
       id="radialGradient240">
      <stop
         style="stop-opacity:1;stop-color:#f5f015"
         offset="0"
         id="stop242" />
      <stop
         style="stop-opacity:1;stop-color:#f9a72c"
         offset="1"
         id="stop244" />
    </radialGradient>
    <radialGradient
       fx="-0.273671"
       fy="-0.392396"
       cx="0"
       cy="0"
       r="1"
       gradientUnits="userSpaceOnUse"
       gradientTransform="matrix(2.3564489,0.7075429,-0.6125957,2.7217088,58.621582,79.788086)"
       spreadMethod="pad"
       id="radialGradient220">
      <stop
         style="stop-opacity:1;stop-color:#f5f015"
         offset="0"
         id="stop222" />
      <stop
         style="stop-opacity:1;stop-color:#f9a72c"
         offset="1"
         id="stop224" />
    </radialGradient>
    <radialGradient
       fx="-0.27289101"
       fy="-0.42309299"
       cx="0"
       cy="0"
       r="1"
       gradientUnits="userSpaceOnUse"
       gradientTransform="matrix(2.3559382,0.7073895,-0.6124629,2.7211187,52.896973,78.071289)"
       spreadMethod="pad"
       id="radialGradient200">
      <stop
         style="stop-opacity:1;stop-color:#f5f015"
         offset="0"
         id="stop202" />
      <stop
         style="stop-opacity:1;stop-color:#f9a72c"
         offset="1"
         id="stop204" />
    </radialGradient>
    <radialGradient
       fx="-0.306732"
       fy="-0.36237001"
       cx="0"
       cy="0"
       r="1"
       gradientUnits="userSpaceOnUse"
       gradientTransform="matrix(2.3566191,0.707594,-0.6126399,2.7219052,71.790527,75.577148)"
       spreadMethod="pad"
       id="radialGradient180">
      <stop
         style="stop-opacity:1;stop-color:#51ade5"
         offset="0"
         id="stop182" />
      <stop
         style="stop-opacity:1;stop-color:#3a72c1"
         offset="1"
         id="stop184" />
    </radialGradient>
    <radialGradient
       fx="-0.316295"
       fy="-0.36385301"
       cx="0"
       cy="0"
       r="1"
       gradientUnits="userSpaceOnUse"
       gradientTransform="matrix(2.3564489,0.7075429,-0.6125957,2.7217088,66.065918,73.858398)"
       spreadMethod="pad"
       id="radialGradient160">
      <stop
         style="stop-opacity:1;stop-color:#51ade5"
         offset="0"
         id="stop162" />
      <stop
         style="stop-opacity:1;stop-color:#3a72c1"
         offset="1"
         id="stop164" />
    </radialGradient>
    <radialGradient
       fx="-0.289051"
       fy="-0.40493199"
       cx="0"
       cy="0"
       r="1"
       gradientUnits="userSpaceOnUse"
       gradientTransform="matrix(2.3564489,0.7075429,-0.6125957,2.7217088,60.342285,72.139648)"
       spreadMethod="pad"
       id="radialGradient140">
      <stop
         style="stop-opacity:1;stop-color:#51ade5"
         offset="0"
         id="stop142" />
      <stop
         style="stop-opacity:1;stop-color:#3a72c1"
         offset="1"
         id="stop144" />
    </radialGradient>
    <radialGradient
       fx="-0.28205699"
       fy="-0.388657"
       cx="0"
       cy="0"
       r="1"
       gradientUnits="userSpaceOnUse"
       gradientTransform="matrix(2.3567896,0.7076452,-0.6126842,2.7221019,54.618164,70.421875)"
       spreadMethod="pad"
       id="radialGradient120">
      <stop
         style="stop-opacity:1;stop-color:#51ade5"
         offset="0"
         id="stop122" />
      <stop
         style="stop-opacity:1;stop-color:#3a72c1"
         offset="1"
         id="stop124" />
    </radialGradient>
    <clipPath
       clipPathUnits="userSpaceOnUse"
       id="clipPath40">
      <path
         inkscape:connector-curvature="0"
         d="m 0,153.069 266.459,0 L 266.459,0 0,0 0,153.069 z"
         id="path42" />
    </clipPath>
    <clipPath
       clipPathUnits="userSpaceOnUse"
       id="clipPath432">
      <path
         inkscape:connector-curvature="0"
         d="m 0,153.069 266.459,0 L 266.459,0 0,0 0,153.069 z"
         id="path434" />
    </clipPath>
  </defs>
  <sodipodi:namedview
     id="base"
     pagecolor="#ffffff"
     bordercolor="#666666"
     borderopacity="1.0"
     inkscape:pageopacity="0.0"
     inkscape:pageshadow="2"
     inkscape:zoom="1.4"
     inkscape:cx="43.826536"
     inkscape:cy="41.780089"
     inkscape:document-units="px"
     inkscape:current-layer="layer1"
     showgrid="false"
     inkscape:window-width="1297"
     inkscape:window-height="1007"
     inkscape:window-x="1945"
     inkscape:window-y="44"
     inkscape:window-maximized="0"
     fit-margin-top="0"
     fit-margin-left="0"
     fit-margin-right="0"
     fit-margin-bottom="0" />
  <metadata
     id="metadata3624">
    <rdf:RDF>
      <cc:Work
         rdf:about="">
        <dc:format>image/svg+xml</dc:format>
        <dc:type
           rdf:resource="http://purl.org/dc/dcmitype/StillImage" />
        <dc:title></dc:title>
      </cc:Work>
    </rdf:RDF>
  </metadata>
  <g
     inkscape:label="Layer 1"
     inkscape:groupmode="layer"
     id="layer1"
     transform="translate(-453.66336,-312.94718)">
    <g
       transform="matrix(4.399692,0,0,-4.399692,321.32326,523.59167)"
       id="g428">
      <g
         id="g430"
         clip-path="url(#clipPath432)">
        <g
           id="g436"
           transform="translate(36.3184,37.8301)">
          <path
             inkscape:connector-curvature="0"
             d="m 0,0 c 0,0.191 0.06,0.354 0.179,0.486 0.118,0.133 0.261,0.2 0.427,0.2 0.167,0 0.31,-0.067 0.428,-0.2 C 1.153,0.354 1.213,0.191 1.213,0 1.213,-0.193 1.154,-0.357 1.034,-0.496 0.916,-0.631 0.773,-0.701 0.606,-0.701 0.44,-0.701 0.298,-0.633 0.179,-0.496 0.06,-0.357 0,-0.193 0,0 m -1.556,0.027 c 0,0.194 0.056,0.358 0.172,0.494 0.115,0.137 0.255,0.208 0.422,0.208 0.166,0 0.308,-0.071 0.428,-0.208 0.118,-0.136 0.178,-0.3 0.178,-0.494 0,-0.193 -0.06,-0.359 -0.178,-0.494 -0.119,-0.138 -0.262,-0.207 -0.428,-0.207 -0.167,0 -0.307,0.069 -0.422,0.207 -0.116,0.135 -0.172,0.301 -0.172,0.494 m -1.521,0 c 0,0.194 0.057,0.356 0.172,0.489 0.114,0.129 0.255,0.197 0.422,0.197 0.166,0 0.308,-0.068 0.427,-0.197 0.119,-0.133 0.179,-0.295 0.179,-0.489 0,-0.193 -0.06,-0.359 -0.179,-0.494 -0.119,-0.138 -0.261,-0.207 -0.427,-0.207 -0.167,0 -0.308,0.069 -0.422,0.207 -0.115,0.135 -0.172,0.301 -0.172,0.494 M -4.67,-0.016 c 0,0.196 0.06,0.356 0.179,0.491 0.118,0.129 0.262,0.197 0.427,0.197 0.167,0 0.307,-0.068 0.422,-0.197 0.115,-0.135 0.172,-0.295 0.172,-0.491 0,-0.189 -0.057,-0.353 -0.172,-0.492 -0.115,-0.138 -0.255,-0.205 -0.422,-0.205 -0.165,0 -0.309,0.067 -0.427,0.205 -0.119,0.139 -0.179,0.303 -0.179,0.492 m -1.557,0.03 c 0,0.191 0.06,0.355 0.179,0.494 0.118,0.137 0.261,0.205 0.427,0.205 0.167,0 0.309,-0.068 0.429,-0.205 0.119,-0.139 0.178,-0.303 0.178,-0.494 0,-0.194 -0.059,-0.358 -0.178,-0.494 -0.119,-0.139 -0.262,-0.207 -0.429,-0.207 -0.166,0 -0.308,0.068 -0.427,0.207 -0.119,0.136 -0.179,0.3 -0.179,0.494 m 0,1.55 c 0,0.194 0.06,0.358 0.179,0.493 0.118,0.138 0.261,0.209 0.427,0.209 0.167,0 0.308,-0.071 0.422,-0.209 0.116,-0.135 0.173,-0.299 0.173,-0.493 0,-0.193 -0.057,-0.355 -0.173,-0.488 -0.114,-0.133 -0.255,-0.199 -0.422,-0.199 -0.166,0 -0.308,0.066 -0.427,0.199 -0.119,0.133 -0.179,0.295 -0.179,0.488 m 0,1.553 c 0,0.19 0.058,0.354 0.173,0.492 0.115,0.139 0.255,0.205 0.422,0.205 0.166,0 0.309,-0.066 0.428,-0.205 0.118,-0.138 0.178,-0.302 0.178,-0.492 0,-0.195 -0.059,-0.355 -0.178,-0.49 C -5.323,2.494 -5.466,2.43 -5.632,2.43 c -0.167,0 -0.307,0.064 -0.422,0.197 -0.115,0.135 -0.173,0.295 -0.173,0.49 M -6.239,4.68 c 0,0.191 0.06,0.353 0.179,0.486 0.119,0.133 0.261,0.201 0.428,0.201 0.166,0 0.309,-0.068 0.428,-0.201 0.119,-0.133 0.178,-0.295 0.178,-0.486 0,-0.194 -0.059,-0.358 -0.178,-0.494 -0.119,-0.137 -0.262,-0.207 -0.428,-0.207 -0.167,0 -0.309,0.068 -0.428,0.207 -0.119,0.136 -0.179,0.3 -0.179,0.494 m 0,1.55 c 0,0.192 0.06,0.358 0.179,0.497 0.119,0.134 0.261,0.205 0.428,0.205 0.166,0 0.309,-0.071 0.428,-0.205 0.119,-0.139 0.178,-0.305 0.178,-0.497 0,-0.191 -0.059,-0.355 -0.178,-0.494 C -5.323,5.6 -5.466,5.529 -5.632,5.529 -5.799,5.529 -5.941,5.6 -6.06,5.736 -6.179,5.875 -6.239,6.039 -6.239,6.23 m 0,1.553 c 0,0.19 0.06,0.356 0.179,0.492 0.119,0.139 0.261,0.205 0.428,0.205 0.166,0 0.306,-0.066 0.422,-0.205 0.115,-0.136 0.171,-0.302 0.171,-0.492 0,-0.193 -0.056,-0.359 -0.171,-0.496 -0.116,-0.139 -0.256,-0.205 -0.422,-0.205 -0.167,0 -0.309,0.066 -0.428,0.205 -0.119,0.137 -0.179,0.303 -0.179,0.496 m 0,1.549 c 0,0.193 0.058,0.357 0.173,0.496 0.115,0.135 0.255,0.205 0.422,0.205 0.165,0 0.308,-0.07 0.427,-0.205 0.119,-0.139 0.178,-0.303 0.178,-0.496 0,-0.191 -0.059,-0.353 -0.178,-0.486 -0.118,-0.133 -0.262,-0.201 -0.427,-0.201 -0.167,0 -0.307,0.068 -0.422,0.201 -0.115,0.133 -0.173,0.295 -0.173,0.486"
             style="fill:#66686e;fill-opacity:1;fill-rule:nonzero;stroke:none"
             id="path438" />
        </g>
        <g
           id="g440"
           transform="translate(43.6982,37.8574)">
          <path
             inkscape:connector-curvature="0"
             d="M 0,0 C -0.025,0.504 0.5,0.879 0.878,0.617 1.278,0.398 1.311,-0.32 0.929,-0.584 0.544,-0.902 -0.018,-0.543 0,0 M -0.011,3.236 C -0.039,3.771 0.547,4.119 0.917,3.809 1.324,3.541 1.25,2.77 0.814,2.588 0.429,2.391 -0.026,2.75 -0.011,3.236 M -0.023,6.305 C -0.048,6.836 0.541,7.209 0.913,6.889 1.301,6.609 1.247,5.85 0.813,5.668 0.435,5.48 -0.037,5.818 -0.023,6.305 M -1.521,0 c -0.028,0.533 0.559,0.881 0.929,0.574 0.408,-0.269 0.333,-1.041 -0.103,-1.222 -0.385,-0.2 -0.84,0.164 -0.826,0.648 M -1.532,3.223 C -1.556,3.756 -0.968,4.129 -0.595,3.807 -0.208,3.529 -0.262,2.77 -0.696,2.586 -1.074,2.4 -1.546,2.736 -1.532,3.223 m -0.012,3.082 c -0.024,0.533 0.566,0.904 0.94,0.584 0.382,-0.264 0.35,-0.983 -0.05,-1.203 -0.385,-0.256 -0.907,0.109 -0.89,0.619 m -1.569,-6.348 c -0.026,0.563 0.626,0.904 0.984,0.535 0.388,-0.332 0.219,-1.131 -0.258,-1.221 -0.362,-0.097 -0.737,0.258 -0.726,0.686 m -0.012,3.225 c -0.024,0.535 0.566,0.902 0.941,0.584 0.378,-0.262 0.353,-0.979 -0.05,-1.194 -0.38,-0.242 -0.908,0.096 -0.891,0.61 m 0,3.082 c -0.024,0.502 0.5,0.879 0.878,0.619 0.4,-0.221 0.432,-0.942 0.051,-1.205 -0.386,-0.317 -0.947,0.041 -0.929,0.586 m -1.544,-6.278 c -0.024,0.535 0.566,0.903 0.94,0.584 0.381,-0.263 0.35,-0.982 -0.05,-1.205 -0.385,-0.256 -0.907,0.11 -0.89,0.621 m 0,1.551 c -0.025,0.531 0.564,0.904 0.936,0.584 0.388,-0.279 0.334,-1.039 -0.1,-1.221 -0.378,-0.187 -0.851,0.151 -0.836,0.637 m 0,1.553 C -4.694,3.592 -4.17,3.967 -3.792,3.707 -3.395,3.488 -3.355,2.77 -3.741,2.514 -4.121,2.211 -4.689,2.543 -4.669,3.09 M -4.681,4.652 C -4.707,5.217 -4.053,5.555 -3.693,5.187 -3.311,4.873 -3.451,4.113 -3.898,3.98 -4.272,3.836 -4.694,4.195 -4.681,4.652 m 0,1.551 c -0.025,0.533 0.566,0.904 0.94,0.584 0.381,-0.266 0.35,-0.982 -0.05,-1.203 -0.384,-0.256 -0.906,0.109 -0.89,0.619 m 0,-0.033 c -0.025,0.531 0.552,0.885 0.937,0.584 0.4,-0.315 0.311,-1.096 -0.155,-1.258 -0.378,-0.129 -0.795,0.219 -0.782,0.674"
             style="fill:#66686e;fill-opacity:1;fill-rule:nonzero;stroke:none"
             id="path442" />
        </g>
        <g
           id="g444"
           transform="translate(51.8804,37.8301)">
          <path
             inkscape:connector-curvature="0"
             d="m 0,0 c 0,0.191 0.06,0.354 0.178,0.486 0.119,0.133 0.262,0.2 0.428,0.2 0.167,0 0.31,-0.067 0.428,-0.2 C 1.153,0.354 1.213,0.191 1.213,0 1.213,-0.193 1.154,-0.357 1.034,-0.496 0.916,-0.631 0.773,-0.701 0.606,-0.701 0.44,-0.701 0.298,-0.633 0.178,-0.496 0.06,-0.357 0,-0.193 0,0 M 0,1.549 C 0,1.742 0.06,1.908 0.178,2.045 0.297,2.184 0.44,2.25 0.606,2.25 0.773,2.25 0.913,2.184 1.029,2.045 1.144,1.908 1.2,1.742 1.2,1.549 1.2,1.359 1.144,1.193 1.029,1.057 0.913,0.918 0.773,0.852 0.606,0.852 0.44,0.852 0.298,0.918 0.178,1.057 0.06,1.193 0,1.359 0,1.549 M 0,3.102 C 0,3.293 0.057,3.457 0.173,3.596 0.288,3.732 0.428,3.801 0.595,3.801 0.761,3.801 0.903,3.732 1.022,3.596 1.141,3.459 1.2,3.293 1.2,3.102 1.2,2.908 1.141,2.744 1.022,2.605 0.904,2.471 0.761,2.4 0.595,2.4 0.428,2.4 0.288,2.471 0.173,2.605 0.057,2.744 0,2.908 0,3.102 m 0,1.55 C 0,4.846 0.057,5.01 0.173,5.146 0.288,5.283 0.428,5.354 0.595,5.354 0.761,5.354 0.903,5.283 1.022,5.146 1.141,5.01 1.2,4.846 1.2,4.652 1.2,4.461 1.141,4.297 1.022,4.166 0.904,4.033 0.761,3.967 0.595,3.967 0.428,3.967 0.288,4.033 0.173,4.166 0.057,4.297 0,4.461 0,4.652 M -1.604,3.129 c 0,0.193 0.059,0.357 0.178,0.494 0.119,0.137 0.262,0.207 0.428,0.207 0.166,0 0.309,-0.07 0.428,-0.207 0.119,-0.137 0.179,-0.301 0.179,-0.494 0,-0.191 -0.06,-0.356 -0.179,-0.494 C -0.688,2.498 -0.832,2.43 -0.998,2.43 c -0.166,0 -0.309,0.068 -0.428,0.205 -0.118,0.138 -0.178,0.303 -0.178,0.494 m -0.012,3.203 c 0,0.191 0.059,0.357 0.179,0.492 0.119,0.139 0.261,0.209 0.428,0.209 0.166,0 0.308,-0.07 0.427,-0.209 0.12,-0.135 0.179,-0.301 0.179,-0.492 0,-0.193 -0.059,-0.357 -0.179,-0.494 C -0.7,5.701 -0.843,5.631 -1.009,5.631 c -0.167,0 -0.309,0.07 -0.428,0.207 -0.12,0.137 -0.179,0.301 -0.179,0.494 M -3.184,3.088 c 0,0.193 0.057,0.357 0.172,0.492 0.115,0.139 0.256,0.209 0.421,0.209 0.167,0 0.31,-0.07 0.428,-0.209 0.12,-0.135 0.179,-0.299 0.179,-0.492 0,-0.192 -0.059,-0.356 -0.179,-0.488 -0.118,-0.131 -0.261,-0.2 -0.428,-0.2 -0.165,0 -0.306,0.069 -0.421,0.2 -0.115,0.132 -0.172,0.296 -0.172,0.488 m -0.012,3.203 c 0,0.193 0.058,0.355 0.172,0.492 0.115,0.139 0.255,0.209 0.422,0.209 0.167,0 0.31,-0.07 0.428,-0.209 0.118,-0.135 0.178,-0.299 0.178,-0.492 0,-0.193 -0.059,-0.357 -0.178,-0.494 C -2.292,5.66 -2.435,5.59 -2.602,5.59 c -0.167,0 -0.307,0.07 -0.422,0.207 -0.114,0.137 -0.172,0.301 -0.172,0.494 M -4.741,0.014 c 0,0.191 0.059,0.355 0.179,0.494 0.118,0.137 0.261,0.205 0.428,0.205 0.165,0 0.308,-0.068 0.427,-0.205 0.119,-0.139 0.178,-0.303 0.178,-0.494 0,-0.194 -0.059,-0.358 -0.178,-0.494 -0.119,-0.139 -0.262,-0.207 -0.427,-0.207 -0.167,0 -0.31,0.068 -0.428,0.207 -0.12,0.136 -0.179,0.3 -0.179,0.494 m 0,1.55 c 0,0.194 0.059,0.358 0.179,0.493 0.118,0.138 0.261,0.209 0.428,0.209 0.165,0 0.306,-0.071 0.421,-0.209 0.115,-0.135 0.172,-0.299 0.172,-0.493 0,-0.193 -0.057,-0.355 -0.172,-0.488 -0.115,-0.133 -0.256,-0.199 -0.421,-0.199 -0.167,0 -0.31,0.066 -0.428,0.199 -0.12,0.133 -0.179,0.295 -0.179,0.488 m 0,1.553 c 0,0.19 0.058,0.354 0.172,0.492 0.115,0.139 0.256,0.205 0.422,0.205 0.167,0 0.309,-0.066 0.429,-0.205 C -3.6,3.471 -3.541,3.307 -3.541,3.117 -3.541,2.922 -3.6,2.762 -3.718,2.627 -3.837,2.494 -3.98,2.43 -4.147,2.43 c -0.166,0 -0.307,0.064 -0.422,0.197 -0.114,0.135 -0.172,0.295 -0.172,0.49 M -4.753,4.68 c 0,0.191 0.06,0.353 0.179,0.486 0.119,0.133 0.261,0.201 0.428,0.201 0.166,0 0.309,-0.068 0.428,-0.201 C -3.6,5.033 -3.54,4.871 -3.54,4.68 -3.54,4.486 -3.6,4.322 -3.718,4.186 -3.837,4.049 -3.98,3.979 -4.146,3.979 c -0.167,0 -0.309,0.068 -0.428,0.207 -0.119,0.136 -0.179,0.3 -0.179,0.494"
             style="fill:#66686e;fill-opacity:1;fill-rule:nonzero;stroke:none"
             id="path446" />
        </g>
        <g
           id="g448"
           transform="translate(60.0332,37.8301)">
          <path
             inkscape:connector-curvature="0"
             d="m 0,0 c 0,0.191 0.059,0.354 0.178,0.486 0.119,0.133 0.262,0.2 0.428,0.2 0.167,0 0.309,-0.067 0.428,-0.2 C 1.153,0.354 1.212,0.191 1.212,0 1.212,-0.193 1.154,-0.357 1.034,-0.496 0.916,-0.631 0.773,-0.701 0.606,-0.701 0.44,-0.701 0.297,-0.633 0.178,-0.496 0.059,-0.357 0,-0.193 0,0 M 0,1.549 C 0,1.742 0.059,1.908 0.178,2.045 0.297,2.184 0.44,2.25 0.606,2.25 0.773,2.25 0.913,2.184 1.028,2.045 1.143,1.908 1.2,1.742 1.2,1.549 1.2,1.359 1.143,1.193 1.028,1.057 0.913,0.918 0.773,0.852 0.606,0.852 0.44,0.852 0.297,0.918 0.178,1.057 0.059,1.193 0,1.359 0,1.549 m -0.012,3.238 c 0,0.193 0.059,0.356 0.178,0.488 0.119,0.133 0.262,0.198 0.429,0.198 0.166,0 0.308,-0.065 0.428,-0.198 C 1.141,5.143 1.2,4.98 1.2,4.787 1.2,4.596 1.141,4.432 1.023,4.293 0.904,4.156 0.761,4.086 0.595,4.086 0.428,4.086 0.285,4.156 0.166,4.293 0.047,4.432 -0.012,4.596 -0.012,4.787 M -1.604,3.25 c 0,0.193 0.059,0.357 0.178,0.494 0.119,0.139 0.261,0.207 0.428,0.207 0.166,0 0.307,-0.068 0.421,-0.207 0.116,-0.137 0.173,-0.301 0.173,-0.494 0,-0.191 -0.057,-0.354 -0.173,-0.486 -0.114,-0.133 -0.255,-0.2 -0.421,-0.2 -0.167,0 -0.309,0.067 -0.428,0.2 -0.119,0.132 -0.178,0.295 -0.178,0.486 m -0.013,3.123 c 0,0.191 0.06,0.356 0.179,0.492 0.119,0.139 0.261,0.207 0.428,0.207 0.166,0 0.309,-0.068 0.428,-0.207 0.119,-0.136 0.178,-0.301 0.178,-0.492 0,-0.193 -0.059,-0.357 -0.178,-0.496 -0.119,-0.135 -0.262,-0.205 -0.428,-0.205 -0.167,0 -0.309,0.07 -0.428,0.205 -0.119,0.139 -0.179,0.303 -0.179,0.496 m -1.58,-3.164 c 0,0.193 0.059,0.357 0.178,0.494 0.12,0.137 0.262,0.207 0.429,0.207 0.166,0 0.309,-0.07 0.427,-0.207 0.119,-0.137 0.179,-0.301 0.179,-0.494 0,-0.191 -0.059,-0.354 -0.179,-0.486 C -2.281,2.59 -2.424,2.521 -2.59,2.521 c -0.167,0 -0.309,0.069 -0.429,0.202 -0.119,0.132 -0.178,0.295 -0.178,0.486 m 0,3.123 c 0,0.191 0.058,0.355 0.173,0.492 0.114,0.139 0.255,0.207 0.421,0.207 0.167,0 0.309,-0.068 0.428,-0.207 0.119,-0.137 0.179,-0.301 0.179,-0.492 0,-0.193 -0.06,-0.357 -0.179,-0.496 -0.119,-0.137 -0.261,-0.205 -0.428,-0.205 -0.166,0 -0.307,0.068 -0.421,0.205 -0.115,0.139 -0.173,0.303 -0.173,0.496 M -4.742,0.014 c 0,0.191 0.06,0.355 0.18,0.494 0.118,0.137 0.26,0.205 0.427,0.205 0.166,0 0.308,-0.068 0.428,-0.205 0.119,-0.139 0.178,-0.303 0.178,-0.494 0,-0.194 -0.059,-0.358 -0.178,-0.494 -0.119,-0.139 -0.262,-0.207 -0.428,-0.207 -0.167,0 -0.309,0.068 -0.427,0.207 -0.12,0.136 -0.18,0.3 -0.18,0.494 m 0,1.55 c 0,0.194 0.06,0.358 0.18,0.493 0.118,0.138 0.26,0.209 0.427,0.209 0.166,0 0.307,-0.071 0.422,-0.209 0.114,-0.135 0.172,-0.299 0.172,-0.493 0,-0.193 -0.058,-0.355 -0.172,-0.488 -0.115,-0.133 -0.256,-0.199 -0.422,-0.199 -0.167,0 -0.309,0.066 -0.427,0.199 -0.12,0.133 -0.18,0.295 -0.18,0.488 M -4.754,3.25 c 0,0.193 0.06,0.355 0.179,0.488 0.118,0.133 0.262,0.198 0.428,0.198 0.166,0 0.309,-0.065 0.428,-0.198 0.118,-0.133 0.178,-0.295 0.178,-0.488 0,-0.191 -0.06,-0.355 -0.178,-0.494 -0.118,-0.137 -0.262,-0.205 -0.428,-0.205 -0.166,0 -0.31,0.068 -0.428,0.205 -0.118,0.139 -0.179,0.303 -0.179,0.494 m 0,1.551 c 0,0.191 0.06,0.355 0.179,0.494 0.118,0.137 0.262,0.205 0.428,0.205 0.166,0 0.309,-0.068 0.428,-0.205 0.118,-0.137 0.178,-0.303 0.178,-0.494 0,-0.194 -0.06,-0.358 -0.178,-0.494 C -3.837,4.168 -3.981,4.1 -4.147,4.1 c -0.166,0 -0.31,0.068 -0.428,0.207 -0.118,0.136 -0.179,0.3 -0.179,0.494 m 0,1.551 c 0,0.193 0.06,0.357 0.179,0.494 0.118,0.136 0.262,0.207 0.428,0.207 0.166,0 0.307,-0.069 0.422,-0.207 0.114,-0.137 0.172,-0.301 0.172,-0.494 0,-0.192 -0.058,-0.356 -0.172,-0.495 -0.115,-0.136 -0.256,-0.205 -0.422,-0.205 -0.166,0 -0.31,0.069 -0.428,0.205 -0.118,0.139 -0.179,0.303 -0.179,0.495"
             style="fill:#66686e;fill-opacity:1;fill-rule:nonzero;stroke:none"
             id="path450" />
        </g>
        <g
           id="g452"
           transform="translate(68.3096,37.8301)">
          <path
             inkscape:connector-curvature="0"
             d="m 0,0 c 0,0.191 0.059,0.354 0.179,0.486 0.118,0.133 0.261,0.2 0.426,0.2 0.167,0 0.31,-0.067 0.429,-0.2 C 1.152,0.354 1.212,0.191 1.212,0 1.212,-0.193 1.153,-0.357 1.034,-0.496 0.915,-0.631 0.772,-0.701 0.605,-0.701 0.44,-0.701 0.297,-0.633 0.179,-0.496 0.059,-0.357 0,-0.193 0,0 M 0,1.549 C 0,1.742 0.059,1.908 0.179,2.045 0.297,2.184 0.44,2.25 0.605,2.25 0.772,2.25 0.913,2.184 1.029,2.045 1.142,1.908 1.2,1.742 1.2,1.549 1.2,1.359 1.142,1.193 1.029,1.057 0.913,0.918 0.772,0.852 0.605,0.852 0.44,0.852 0.297,0.918 0.179,1.057 0.059,1.193 0,1.359 0,1.549 M 0,3.102 C 0,3.293 0.057,3.457 0.171,3.596 0.288,3.732 0.428,3.801 0.593,3.801 0.76,3.801 0.903,3.732 1.021,3.596 1.14,3.459 1.2,3.293 1.2,3.102 1.2,2.908 1.141,2.744 1.021,2.605 0.903,2.471 0.76,2.4 0.593,2.4 0.428,2.4 0.288,2.471 0.171,2.605 0.057,2.744 0,2.908 0,3.102 m 0,1.55 C 0,4.846 0.057,5.01 0.171,5.146 0.288,5.283 0.428,5.354 0.593,5.354 0.76,5.354 0.903,5.283 1.021,5.146 1.14,5.01 1.2,4.846 1.2,4.652 1.2,4.461 1.141,4.297 1.021,4.166 0.903,4.033 0.76,3.967 0.593,3.967 0.428,3.967 0.288,4.033 0.171,4.166 0.057,4.297 0,4.461 0,4.652 m -0.012,1.567 c 0,0.189 0.059,0.351 0.178,0.484 0.118,0.135 0.262,0.199 0.429,0.199 0.165,0 0.308,-0.064 0.427,-0.199 C 1.141,6.57 1.2,6.408 1.2,6.219 1.2,6.025 1.141,5.859 1.022,5.723 0.903,5.584 0.76,5.518 0.595,5.518 0.428,5.518 0.284,5.584 0.166,5.723 0.047,5.859 -0.012,6.025 -0.012,6.219 m -1.84,-3.983 c 0,0.194 0.059,0.358 0.179,0.496 0.118,0.137 0.261,0.206 0.428,0.206 0.165,0 0.306,-0.069 0.42,-0.206 0.117,-0.138 0.174,-0.302 0.174,-0.496 0,-0.191 -0.057,-0.353 -0.174,-0.486 -0.114,-0.133 -0.255,-0.197 -0.42,-0.197 -0.167,0 -0.31,0.064 -0.428,0.197 -0.12,0.133 -0.179,0.295 -0.179,0.486 m -1.592,1.526 c 0,0.191 0.059,0.353 0.178,0.486 0.119,0.133 0.262,0.197 0.428,0.197 0.167,0 0.307,-0.064 0.421,-0.197 0.115,-0.133 0.173,-0.295 0.173,-0.486 0,-0.194 -0.058,-0.358 -0.173,-0.496 -0.114,-0.137 -0.254,-0.205 -0.421,-0.205 -0.166,0 -0.308,0.068 -0.428,0.205 -0.119,0.138 -0.178,0.302 -0.178,0.496 M -4.989,0.014 c 0,0.191 0.059,0.355 0.178,0.494 0.12,0.137 0.262,0.205 0.428,0.205 0.167,0 0.309,-0.068 0.428,-0.205 0.119,-0.139 0.179,-0.303 0.179,-0.494 0,-0.194 -0.059,-0.358 -0.179,-0.494 -0.119,-0.139 -0.261,-0.207 -0.428,-0.207 -0.166,0 -0.308,0.068 -0.428,0.207 -0.119,0.136 -0.178,0.3 -0.178,0.494 m 0,1.55 c 0,0.194 0.059,0.358 0.178,0.493 0.12,0.138 0.262,0.209 0.428,0.209 0.167,0 0.307,-0.071 0.422,-0.209 0.115,-0.135 0.172,-0.299 0.172,-0.493 0,-0.193 -0.057,-0.355 -0.172,-0.488 -0.115,-0.133 -0.255,-0.199 -0.422,-0.199 -0.166,0 -0.308,0.066 -0.428,0.199 -0.119,0.133 -0.178,0.295 -0.178,0.488 m 0,1.553 c 0,0.19 0.057,0.354 0.173,0.492 0.114,0.139 0.255,0.205 0.421,0.205 0.166,0 0.309,-0.066 0.428,-0.205 0.119,-0.138 0.178,-0.302 0.178,-0.492 0,-0.195 -0.059,-0.355 -0.178,-0.49 C -4.086,2.494 -4.229,2.43 -4.395,2.43 c -0.166,0 -0.307,0.064 -0.421,0.197 -0.116,0.135 -0.173,0.295 -0.173,0.49 M -5.001,4.68 c 0,0.191 0.06,0.353 0.179,0.486 0.118,0.133 0.261,0.201 0.428,0.201 0.165,0 0.308,-0.068 0.427,-0.201 0.119,-0.133 0.178,-0.295 0.178,-0.486 0,-0.194 -0.059,-0.358 -0.178,-0.494 -0.118,-0.137 -0.262,-0.207 -0.427,-0.207 -0.167,0 -0.31,0.068 -0.428,0.207 -0.119,0.136 -0.179,0.3 -0.179,0.494 m 0,1.55 c 0,0.192 0.06,0.358 0.179,0.497 0.118,0.134 0.261,0.205 0.428,0.205 0.165,0 0.308,-0.071 0.427,-0.205 0.119,-0.139 0.178,-0.305 0.178,-0.497 0,-0.191 -0.059,-0.355 -0.178,-0.494 C -4.085,5.6 -4.229,5.529 -4.394,5.529 c -0.167,0 -0.31,0.071 -0.428,0.207 -0.119,0.139 -0.179,0.303 -0.179,0.494"
             style="fill:#66686e;fill-opacity:1;fill-rule:nonzero;stroke:none"
             id="path454" />
        </g>
        <g
           id="g456"
           transform="translate(82.5884,44.0488)">
          <path
             inkscape:connector-curvature="0"
             d="m 0,0 c 0,0.189 0.059,0.352 0.179,0.484 0.118,0.135 0.261,0.2 0.426,0.2 0.167,0 0.31,-0.065 0.43,-0.2 C 1.153,0.352 1.212,0.189 1.212,0 1.212,-0.193 1.153,-0.359 1.035,-0.496 0.916,-0.635 0.772,-0.701 0.605,-0.701 0.44,-0.701 0.297,-0.635 0.179,-0.496 0.059,-0.359 0,-0.193 0,0 M 0,1.549 C 0,1.74 0.059,1.904 0.179,2.037 0.297,2.168 0.44,2.236 0.605,2.236 0.772,2.236 0.914,2.168 1.029,2.037 1.144,1.904 1.2,1.74 1.2,1.549 1.2,1.355 1.144,1.191 1.029,1.053 0.914,0.918 0.772,0.848 0.605,0.848 0.44,0.848 0.297,0.918 0.179,1.053 0.059,1.191 0,1.357 0,1.549 m -1.556,-3.074 c 0,0.193 0.057,0.355 0.172,0.488 0.114,0.133 0.256,0.197 0.422,0.197 0.167,0 0.309,-0.064 0.427,-0.197 0.119,-0.133 0.178,-0.295 0.178,-0.488 0,-0.192 -0.059,-0.356 -0.178,-0.495 -0.118,-0.136 -0.26,-0.205 -0.427,-0.205 -0.166,0 -0.308,0.069 -0.422,0.205 -0.115,0.139 -0.172,0.303 -0.172,0.495 m -0.013,4.652 c 0,0.191 0.06,0.355 0.179,0.494 0.119,0.139 0.262,0.207 0.428,0.207 0.167,0 0.307,-0.068 0.421,-0.207 0.115,-0.139 0.173,-0.303 0.173,-0.494 0,-0.193 -0.058,-0.356 -0.173,-0.488 -0.114,-0.133 -0.254,-0.198 -0.421,-0.198 -0.166,0 -0.309,0.065 -0.428,0.198 -0.119,0.132 -0.179,0.295 -0.179,0.488 m -1.509,-4.666 c 0,0.191 0.059,0.355 0.178,0.494 0.12,0.137 0.262,0.205 0.428,0.205 0.168,0 0.307,-0.068 0.423,-0.205 0.115,-0.139 0.172,-0.303 0.172,-0.494 0,-0.193 -0.057,-0.356 -0.172,-0.488 -0.116,-0.133 -0.255,-0.198 -0.423,-0.198 -0.166,0 -0.308,0.065 -0.428,0.198 -0.119,0.132 -0.178,0.295 -0.178,0.488 M -3.09,3.127 c 0,0.191 0.061,0.355 0.179,0.494 0.119,0.139 0.261,0.207 0.428,0.207 0.166,0 0.308,-0.068 0.428,-0.207 0.119,-0.139 0.178,-0.303 0.178,-0.494 0,-0.193 -0.059,-0.357 -0.178,-0.494 -0.12,-0.139 -0.262,-0.207 -0.428,-0.207 -0.167,0 -0.309,0.068 -0.428,0.207 C -3.029,2.77 -3.09,2.934 -3.09,3.127 M -4.67,-1.58 c 0,0.191 0.059,0.355 0.178,0.494 0.119,0.137 0.262,0.205 0.429,0.205 0.166,0 0.308,-0.068 0.427,-0.205 0.119,-0.139 0.178,-0.303 0.178,-0.494 0,-0.193 -0.059,-0.356 -0.178,-0.488 -0.119,-0.133 -0.261,-0.198 -0.427,-0.198 -0.167,0 -0.31,0.065 -0.429,0.198 -0.119,0.132 -0.178,0.295 -0.178,0.488 m 0,4.666 c 0,0.191 0.058,0.355 0.173,0.494 0.114,0.137 0.255,0.205 0.421,0.205 0.166,0 0.309,-0.068 0.429,-0.205 0.118,-0.139 0.178,-0.303 0.178,-0.494 0,-0.193 -0.06,-0.357 -0.178,-0.494 -0.12,-0.137 -0.263,-0.207 -0.429,-0.207 -0.166,0 -0.307,0.068 -0.421,0.207 -0.115,0.137 -0.173,0.304 -0.173,0.494 m -1.545,-9.291 c 0,0.191 0.06,0.355 0.179,0.494 0.119,0.137 0.26,0.205 0.428,0.205 0.166,0 0.308,-0.068 0.427,-0.205 0.119,-0.139 0.179,-0.303 0.179,-0.494 0,-0.193 -0.06,-0.357 -0.179,-0.494 -0.119,-0.139 -0.261,-0.207 -0.427,-0.207 -0.168,0 -0.309,0.068 -0.428,0.207 -0.119,0.137 -0.179,0.301 -0.179,0.494 m 0,1.551 c 0,0.193 0.06,0.357 0.179,0.492 0.119,0.139 0.26,0.209 0.428,0.209 0.166,0 0.306,-0.07 0.421,-0.209 0.115,-0.135 0.173,-0.299 0.173,-0.492 0,-0.194 -0.058,-0.356 -0.173,-0.489 -0.115,-0.132 -0.255,-0.199 -0.421,-0.199 -0.168,0 -0.309,0.067 -0.428,0.199 -0.119,0.133 -0.179,0.295 -0.179,0.489 m 0,1.552 c 0,0.19 0.057,0.354 0.172,0.493 0.116,0.138 0.256,0.205 0.423,0.205 0.165,0 0.308,-0.067 0.428,-0.205 0.118,-0.139 0.178,-0.303 0.178,-0.493 0,-0.195 -0.06,-0.355 -0.178,-0.49 -0.12,-0.133 -0.263,-0.197 -0.428,-0.197 -0.167,0 -0.307,0.064 -0.423,0.197 -0.115,0.135 -0.172,0.295 -0.172,0.49 m -0.011,1.563 c 0,0.191 0.059,0.353 0.178,0.486 0.118,0.133 0.261,0.201 0.428,0.201 0.165,0 0.308,-0.068 0.428,-0.201 0.118,-0.133 0.179,-0.295 0.179,-0.486 0,-0.193 -0.061,-0.357 -0.179,-0.494 -0.119,-0.137 -0.263,-0.207 -0.428,-0.207 -0.167,0 -0.31,0.068 -0.428,0.207 -0.119,0.137 -0.178,0.301 -0.178,0.494 m 0,1.551 c 0,0.191 0.059,0.357 0.178,0.496 0.118,0.135 0.261,0.205 0.428,0.205 0.165,0 0.308,-0.07 0.428,-0.205 0.118,-0.139 0.179,-0.305 0.179,-0.496 0,-0.192 -0.061,-0.356 -0.179,-0.494 -0.119,-0.137 -0.263,-0.207 -0.428,-0.207 -0.167,0 -0.31,0.07 -0.428,0.207 -0.119,0.138 -0.178,0.302 -0.178,0.494 m 0,1.552 c 0,0.19 0.059,0.356 0.178,0.493 0.118,0.138 0.261,0.205 0.428,0.205 0.165,0 0.307,-0.067 0.421,-0.205 0.116,-0.137 0.173,-0.303 0.173,-0.493 0,-0.193 -0.057,-0.359 -0.173,-0.496 C -5.313,0.93 -5.455,0.863 -5.62,0.863 c -0.167,0 -0.31,0.067 -0.428,0.205 -0.119,0.137 -0.178,0.303 -0.178,0.496 m 0,1.549 c 0,0.194 0.057,0.358 0.172,0.496 0.114,0.135 0.255,0.205 0.422,0.205 0.167,0 0.308,-0.068 0.428,-0.205 0.119,-0.138 0.178,-0.302 0.178,-0.496 0,-0.191 -0.059,-0.353 -0.178,-0.486 -0.12,-0.133 -0.261,-0.201 -0.428,-0.201 -0.167,0 -0.308,0.068 -0.422,0.201 -0.115,0.133 -0.172,0.295 -0.172,0.486"
             style="fill:#66686e;fill-opacity:1;fill-rule:nonzero;stroke:none"
             id="path458" />
        </g>
        <g
           id="g460"
           transform="translate(91.2275,37.8301)">
          <path
             inkscape:connector-curvature="0"
             d="m 0,0 c 0,0.191 0.06,0.354 0.178,0.486 0.12,0.133 0.262,0.2 0.428,0.2 0.166,0 0.31,-0.067 0.428,-0.2 C 1.152,0.354 1.213,0.191 1.213,0 1.213,-0.193 1.152,-0.357 1.034,-0.496 0.916,-0.631 0.772,-0.701 0.606,-0.701 0.44,-0.701 0.298,-0.633 0.178,-0.496 0.06,-0.357 0,-0.193 0,0 M 0,1.549 C 0,1.742 0.06,1.908 0.178,2.045 0.298,2.184 0.44,2.25 0.606,2.25 0.772,2.25 0.913,2.184 1.028,2.045 1.143,1.908 1.199,1.742 1.199,1.549 1.199,1.359 1.143,1.193 1.028,1.057 0.913,0.918 0.772,0.852 0.606,0.852 0.44,0.852 0.298,0.918 0.178,1.057 0.06,1.193 0,1.359 0,1.549 M 0,3.102 C 0,3.293 0.057,3.457 0.172,3.596 0.287,3.732 0.427,3.801 0.594,3.801 0.761,3.801 0.903,3.732 1.021,3.596 1.142,3.457 1.199,3.293 1.199,3.102 1.199,2.908 1.142,2.744 1.021,2.605 0.903,2.471 0.761,2.4 0.594,2.4 0.427,2.4 0.287,2.471 0.172,2.605 0.057,2.744 0,2.908 0,3.102 m 0,1.55 C 0,4.846 0.057,5.01 0.172,5.146 0.287,5.283 0.427,5.354 0.594,5.354 0.761,5.354 0.903,5.283 1.021,5.146 1.142,5.01 1.199,4.846 1.199,4.652 1.199,4.461 1.142,4.297 1.021,4.166 0.903,4.033 0.761,3.967 0.594,3.967 0.427,3.967 0.287,4.033 0.172,4.166 0.057,4.297 0,4.461 0,4.652 m -0.012,1.567 c 0,0.189 0.059,0.351 0.179,0.484 0.119,0.135 0.261,0.199 0.428,0.199 0.166,0 0.308,-0.064 0.428,-0.199 C 1.142,6.57 1.201,6.408 1.201,6.219 1.201,6.025 1.142,5.859 1.023,5.723 0.903,5.584 0.761,5.518 0.595,5.518 0.428,5.518 0.286,5.584 0.167,5.723 0.047,5.859 -0.012,6.025 -0.012,6.219 m 0,1.549 c 0,0.191 0.059,0.355 0.179,0.488 0.119,0.131 0.261,0.199 0.428,0.199 0.166,0 0.306,-0.068 0.421,-0.199 C 1.13,8.123 1.188,7.959 1.188,7.768 1.188,7.574 1.13,7.41 1.016,7.271 0.901,7.137 0.761,7.066 0.595,7.066 0.428,7.066 0.286,7.137 0.167,7.271 0.047,7.41 -0.012,7.576 -0.012,7.768 M -1.569,3.129 c 0,0.193 0.059,0.357 0.178,0.494 0.12,0.137 0.262,0.207 0.429,0.207 0.166,0 0.307,-0.07 0.42,-0.207 0.117,-0.137 0.173,-0.301 0.173,-0.494 0,-0.191 -0.056,-0.356 -0.173,-0.486 -0.113,-0.133 -0.254,-0.202 -0.42,-0.202 -0.167,0 -0.309,0.069 -0.429,0.202 -0.119,0.13 -0.178,0.295 -0.178,0.486 m -0.012,6.217 c 0,0.191 0.06,0.355 0.179,0.494 0.118,0.139 0.261,0.207 0.428,0.207 0.167,0 0.307,-0.068 0.422,-0.207 0.115,-0.135 0.173,-0.303 0.173,-0.494 0,-0.194 -0.058,-0.356 -0.173,-0.489 C -0.667,8.725 -0.807,8.66 -0.974,8.66 c -0.167,0 -0.31,0.065 -0.428,0.197 -0.119,0.133 -0.179,0.295 -0.179,0.489 M -3.089,3.129 c 0,0.193 0.059,0.357 0.177,0.494 0.119,0.137 0.263,0.207 0.429,0.207 0.166,0 0.309,-0.07 0.428,-0.207 0.118,-0.137 0.178,-0.301 0.178,-0.494 0,-0.191 -0.06,-0.356 -0.178,-0.494 C -2.174,2.498 -2.317,2.43 -2.483,2.43 c -0.166,0 -0.31,0.068 -0.429,0.205 -0.118,0.138 -0.177,0.303 -0.177,0.494 m -0.013,6.217 c 0,0.191 0.06,0.355 0.179,0.494 0.119,0.139 0.261,0.207 0.427,0.207 0.167,0 0.309,-0.068 0.429,-0.207 0.119,-0.135 0.178,-0.303 0.178,-0.494 0,-0.194 -0.059,-0.358 -0.178,-0.494 -0.12,-0.137 -0.262,-0.207 -0.429,-0.207 -0.166,0 -0.308,0.068 -0.427,0.207 -0.119,0.136 -0.179,0.3 -0.179,0.494 M -4.671,3.088 c 0,0.193 0.058,0.357 0.173,0.492 0.115,0.139 0.255,0.209 0.422,0.209 0.166,0 0.309,-0.07 0.428,-0.209 C -3.53,3.445 -3.469,3.281 -3.469,3.088 -3.469,2.896 -3.53,2.732 -3.648,2.6 -3.767,2.469 -3.91,2.4 -4.076,2.4 c -0.167,0 -0.307,0.069 -0.422,0.2 -0.115,0.132 -0.173,0.296 -0.173,0.488 m -0.011,6.217 c 0,0.191 0.057,0.355 0.172,0.494 0.115,0.137 0.255,0.205 0.422,0.205 0.167,0 0.308,-0.068 0.428,-0.205 0.118,-0.139 0.178,-0.303 0.178,-0.494 0,-0.194 -0.059,-0.358 -0.178,-0.494 -0.119,-0.137 -0.261,-0.207 -0.428,-0.207 -0.167,0 -0.307,0.068 -0.422,0.207 -0.115,0.136 -0.172,0.304 -0.172,0.494 M -6.227,0.014 c 0,0.191 0.06,0.355 0.178,0.494 0.12,0.137 0.262,0.205 0.428,0.205 0.167,0 0.309,-0.068 0.428,-0.205 0.119,-0.139 0.179,-0.303 0.179,-0.494 0,-0.194 -0.06,-0.358 -0.179,-0.494 -0.119,-0.139 -0.261,-0.207 -0.428,-0.207 -0.166,0 -0.308,0.068 -0.428,0.207 -0.118,0.136 -0.178,0.3 -0.178,0.494 m 0,1.55 c 0,0.194 0.06,0.358 0.178,0.493 0.12,0.138 0.262,0.209 0.428,0.209 0.167,0 0.307,-0.071 0.423,-0.209 0.114,-0.135 0.172,-0.299 0.172,-0.493 0,-0.193 -0.058,-0.355 -0.172,-0.488 -0.116,-0.133 -0.256,-0.199 -0.423,-0.199 -0.166,0 -0.308,0.066 -0.428,0.199 -0.118,0.133 -0.178,0.295 -0.178,0.488 m 0,1.553 c 0,0.19 0.058,0.354 0.172,0.492 0.115,0.139 0.255,0.205 0.422,0.205 0.167,0 0.31,-0.066 0.428,-0.205 0.12,-0.138 0.179,-0.302 0.179,-0.492 0,-0.195 -0.059,-0.355 -0.179,-0.49 C -5.323,2.494 -5.466,2.43 -5.633,2.43 -5.8,2.43 -5.94,2.494 -6.055,2.627 -6.169,2.762 -6.227,2.922 -6.227,3.117 M -6.239,4.68 c 0,0.191 0.06,0.353 0.178,0.486 0.119,0.133 0.263,0.201 0.429,0.201 0.166,0 0.309,-0.068 0.427,-0.201 0.12,-0.133 0.179,-0.295 0.179,-0.486 0,-0.194 -0.059,-0.358 -0.179,-0.494 -0.118,-0.137 -0.261,-0.207 -0.427,-0.207 -0.166,0 -0.309,0.068 -0.429,0.207 -0.118,0.136 -0.178,0.3 -0.178,0.494 m 0,1.55 c 0,0.192 0.06,0.358 0.178,0.497 0.119,0.134 0.263,0.205 0.429,0.205 0.166,0 0.309,-0.071 0.427,-0.205 0.12,-0.139 0.179,-0.305 0.179,-0.497 0,-0.191 -0.059,-0.355 -0.179,-0.494 C -5.323,5.6 -5.466,5.529 -5.632,5.529 -5.798,5.529 -5.941,5.6 -6.061,5.736 -6.179,5.875 -6.239,6.039 -6.239,6.23 m 0,1.553 c 0,0.19 0.06,0.356 0.178,0.492 0.119,0.139 0.263,0.205 0.429,0.205 0.166,0 0.306,-0.066 0.421,-0.205 0.115,-0.136 0.173,-0.302 0.173,-0.492 0,-0.193 -0.058,-0.359 -0.173,-0.496 -0.115,-0.139 -0.255,-0.205 -0.421,-0.205 -0.166,0 -0.309,0.066 -0.429,0.205 -0.118,0.137 -0.178,0.303 -0.178,0.496"
             style="fill:#66686e;fill-opacity:1;fill-rule:nonzero;stroke:none"
             id="path462" />
        </g>
        <g
           id="g464"
           transform="translate(98.7275,39.3789)">
          <path
             inkscape:connector-curvature="0"
             d="M 0,0 C 0,0.193 0.059,0.359 0.178,0.496 0.297,0.635 0.44,0.701 0.606,0.701 0.772,0.701 0.913,0.635 1.028,0.496 1.144,0.359 1.2,0.193 1.2,0 1.2,-0.189 1.144,-0.355 1.028,-0.492 0.913,-0.631 0.772,-0.697 0.606,-0.697 0.44,-0.697 0.297,-0.631 0.178,-0.492 0.059,-0.355 0,-0.189 0,0 m 0,1.553 c 0,0.191 0.057,0.355 0.173,0.494 0.113,0.137 0.255,0.205 0.42,0.205 0.167,0 0.31,-0.068 0.428,-0.205 C 1.141,1.91 1.2,1.744 1.2,1.553 1.2,1.359 1.141,1.195 1.021,1.057 0.903,0.922 0.76,0.852 0.593,0.852 0.428,0.852 0.286,0.922 0.173,1.057 0.057,1.195 0,1.359 0,1.553 m 0,1.551 c 0,0.193 0.057,0.357 0.173,0.494 0.113,0.136 0.255,0.207 0.42,0.207 0.167,0 0.31,-0.071 0.428,-0.207 C 1.141,3.461 1.2,3.297 1.2,3.104 1.2,2.912 1.141,2.748 1.021,2.617 0.903,2.484 0.76,2.418 0.593,2.418 0.428,2.418 0.286,2.484 0.173,2.617 0.057,2.748 0,2.912 0,3.104 m -1.344,-4.625 c 0,0.193 0.056,0.355 0.171,0.488 0.115,0.129 0.256,0.197 0.422,0.197 0.167,0 0.31,-0.068 0.428,-0.197 0.118,-0.133 0.179,-0.295 0.179,-0.488 0,-0.194 -0.059,-0.36 -0.179,-0.495 -0.118,-0.138 -0.261,-0.207 -0.428,-0.207 -0.166,0 -0.307,0.069 -0.422,0.207 -0.115,0.135 -0.171,0.301 -0.171,0.495 m -0.025,6.224 c 0,0.192 0.059,0.356 0.178,0.494 0.12,0.137 0.262,0.205 0.428,0.205 0.167,0 0.311,-0.068 0.429,-0.205 0.119,-0.138 0.178,-0.302 0.178,-0.494 0,-0.193 -0.059,-0.357 -0.178,-0.496 -0.118,-0.135 -0.262,-0.205 -0.429,-0.205 -0.166,0 -0.308,0.07 -0.428,0.205 -0.119,0.139 -0.178,0.303 -0.178,0.496 m -1.569,-6.267 c 0,0.195 0.06,0.355 0.179,0.49 0.119,0.129 0.261,0.197 0.428,0.197 0.166,0 0.307,-0.068 0.422,-0.197 0.115,-0.135 0.172,-0.295 0.172,-0.49 0,-0.19 -0.057,-0.354 -0.172,-0.493 -0.115,-0.138 -0.256,-0.205 -0.422,-0.205 -0.167,0 -0.309,0.067 -0.428,0.205 -0.119,0.139 -0.179,0.303 -0.179,0.493 m -0.011,6.226 c 0,0.192 0.057,0.356 0.172,0.492 0.115,0.139 0.255,0.207 0.422,0.207 0.167,0 0.31,-0.068 0.428,-0.207 0.118,-0.136 0.177,-0.3 0.177,-0.492 0,-0.193 -0.059,-0.357 -0.177,-0.496 -0.118,-0.137 -0.261,-0.205 -0.428,-0.205 -0.167,0 -0.307,0.068 -0.422,0.205 -0.115,0.139 -0.172,0.303 -0.172,0.496 m -1.544,-6.197 c 0,0.191 0.059,0.355 0.177,0.494 0.119,0.137 0.263,0.205 0.428,0.205 0.167,0 0.31,-0.068 0.428,-0.205 0.119,-0.139 0.179,-0.303 0.179,-0.494 0,-0.194 -0.059,-0.358 -0.179,-0.494 -0.118,-0.139 -0.261,-0.207 -0.428,-0.207 -0.165,0 -0.308,0.068 -0.428,0.207 -0.118,0.136 -0.177,0.3 -0.177,0.494 m 0,1.551 c 0,0.193 0.059,0.357 0.177,0.492 0.12,0.138 0.263,0.209 0.428,0.209 0.167,0 0.307,-0.071 0.422,-0.209 0.115,-0.135 0.173,-0.299 0.173,-0.492 0,-0.194 -0.058,-0.356 -0.173,-0.489 -0.115,-0.132 -0.255,-0.199 -0.422,-0.199 -0.165,0 -0.308,0.067 -0.428,0.199 -0.118,0.133 -0.177,0.295 -0.177,0.489 m 0,1.552 c 0,0.19 0.056,0.354 0.171,0.493 0.115,0.138 0.255,0.205 0.422,0.205 0.167,0 0.31,-0.067 0.428,-0.205 0.118,-0.139 0.179,-0.303 0.179,-0.493 0,-0.195 -0.061,-0.355 -0.179,-0.49 C -3.59,0.945 -3.733,0.881 -3.9,0.881 c -0.167,0 -0.307,0.064 -0.422,0.197 -0.115,0.135 -0.171,0.295 -0.171,0.49 m -0.012,1.563 c 0,0.191 0.059,0.353 0.177,0.486 0.12,0.133 0.261,0.201 0.43,0.201 0.165,0 0.308,-0.068 0.426,-0.201 0.118,-0.133 0.179,-0.295 0.179,-0.486 0,-0.193 -0.059,-0.358 -0.179,-0.494 C -3.59,2.5 -3.733,2.43 -3.898,2.43 c -0.169,0 -0.31,0.068 -0.43,0.207 -0.118,0.136 -0.177,0.301 -0.177,0.494 m 0,1.551 c 0,0.191 0.059,0.357 0.177,0.496 0.12,0.134 0.261,0.205 0.43,0.205 0.165,0 0.308,-0.071 0.426,-0.205 0.118,-0.139 0.179,-0.305 0.179,-0.496 0,-0.192 -0.059,-0.356 -0.179,-0.495 C -3.59,4.051 -3.733,3.98 -3.898,3.98 c -0.169,0 -0.31,0.071 -0.43,0.207 -0.118,0.139 -0.177,0.303 -0.177,0.495"
             style="fill:#66686e;fill-opacity:1;fill-rule:nonzero;stroke:none"
             id="path466" />
        </g>
      </g>
    </g>
  </g>
</svg>
